# xmcd CD database file
#
# Track frame offsets:
#	150
#	15919
#	28029
#	39779
#	51788
#	72609
#	82422
#	94803
#	106920
#	118792
#	131676
#	145035
#
# Disc length: 2120 seconds
#
# Revision: 0
# Processed by: cddbd v1.5.2PL0 Copyright (c) Steve Scherf et al.
# Submitted via: CDex 1.51
#
DISCID=a008460c
DTITLE=Various Artist - Great Ladies of the Opry (Grand Ole Opry: Live Classics)
DYEAR=2006
DGENRE=Country
TTITLE0=Patsy Cline/She's Got You
TTITLE1=Connie Smith/Then And Only Then
TTITLE2=Dottie West/Here Comes My Baby Back Again
TTITLE3=Loretta Lynn/Blue Kentucky Girl
TTITLE4=Cousin Minnie Pearl/Comedy
TTITLE5=Jean Shepard/Second Fiddle To An Old Guitar
TTITLE6=Tammy Wynette/Stand By Your Man
TTITLE7=Sammi Smith/Help Me Make It Through The Night]
TTITLE8=Dolly Parton/Jolene
TTITLE9=Loretta Lynn/You Ain't Woman Enough
TTITLE10=Connie Smith/The Hurtin's All Over
TTITLE11=Kitty Wells/This White Circle
EXTD=YEAR: 2006
EXTT0=
EXTT1=
EXTT2=
EXTT3=
EXTT4=
EXTT5=
EXTT6=
EXTT7=
EXTT8=
EXTT9=
EXTT10=
EXTT11=
PLAYORDER=
